<mxfile host="app.diagrams.net" agent="Mozilla/5.0 (Windows NT 10.0; Win64; x64) AppleWebKit/537.36 (KHTML, like Gecko) Chrome/131.0.0.0 Safari/537.36" version="25.0.3" pages="3">
  <diagram name="1 - 100" id="qOt-J2t6YA8M7WcfqoU-">
    <mxGraphModel dx="1818" dy="979" grid="1" gridSize="10" guides="1" tooltips="1" connect="1" arrows="1" fold="1" page="1" pageScale="1" pageWidth="827" pageHeight="1169" math="0" shadow="0">
      <root>
        <mxCell id="0" />
        <mxCell id="1" parent="0" />
        <mxCell id="wrcKMghtl0XRS7DJWMNJ-5" style="edgeStyle=orthogonalEdgeStyle;rounded=0;orthogonalLoop=1;jettySize=auto;html=1;exitX=0.5;exitY=1;exitDx=0;exitDy=0;exitPerimeter=0;entryX=0.5;entryY=0;entryDx=0;entryDy=0;" edge="1" parent="1" source="wrcKMghtl0XRS7DJWMNJ-1" target="wrcKMghtl0XRS7DJWMNJ-4">
          <mxGeometry relative="1" as="geometry" />
        </mxCell>
        <mxCell id="wrcKMghtl0XRS7DJWMNJ-1" value="INICIO" style="strokeWidth=2;html=1;shape=mxgraph.flowchart.start_1;whiteSpace=wrap;" vertex="1" parent="1">
          <mxGeometry x="360" y="50" width="100" height="60" as="geometry" />
        </mxCell>
        <mxCell id="wrcKMghtl0XRS7DJWMNJ-2" value="FIM" style="strokeWidth=2;html=1;shape=mxgraph.flowchart.start_1;whiteSpace=wrap;" vertex="1" parent="1">
          <mxGeometry x="355" y="690" width="100" height="60" as="geometry" />
        </mxCell>
        <mxCell id="wrcKMghtl0XRS7DJWMNJ-11" style="edgeStyle=orthogonalEdgeStyle;rounded=0;orthogonalLoop=1;jettySize=auto;html=1;exitX=0.5;exitY=1;exitDx=0;exitDy=0;entryX=0.5;entryY=0;entryDx=0;entryDy=0;" edge="1" parent="1" source="wrcKMghtl0XRS7DJWMNJ-4" target="wrcKMghtl0XRS7DJWMNJ-7">
          <mxGeometry relative="1" as="geometry" />
        </mxCell>
        <mxCell id="wrcKMghtl0XRS7DJWMNJ-4" value="NUM" style="shape=parallelogram;html=1;strokeWidth=2;perimeter=parallelogramPerimeter;whiteSpace=wrap;rounded=1;arcSize=12;size=0.23;" vertex="1" parent="1">
          <mxGeometry x="360" y="150" width="100" height="60" as="geometry" />
        </mxCell>
        <mxCell id="wrcKMghtl0XRS7DJWMNJ-7" value="CONTADOR = 1" style="rounded=1;whiteSpace=wrap;html=1;absoluteArcSize=1;arcSize=14;strokeWidth=2;" vertex="1" parent="1">
          <mxGeometry x="360" y="240" width="100" height="40" as="geometry" />
        </mxCell>
        <mxCell id="wrcKMghtl0XRS7DJWMNJ-14" style="edgeStyle=orthogonalEdgeStyle;rounded=0;orthogonalLoop=1;jettySize=auto;html=1;exitX=0.5;exitY=1;exitDx=0;exitDy=0;exitPerimeter=0;entryX=0.5;entryY=0;entryDx=0;entryDy=0;" edge="1" parent="1" source="wrcKMghtl0XRS7DJWMNJ-10" target="wrcKMghtl0XRS7DJWMNJ-13">
          <mxGeometry relative="1" as="geometry" />
        </mxCell>
        <mxCell id="wrcKMghtl0XRS7DJWMNJ-21" value="TRUE" style="edgeLabel;html=1;align=center;verticalAlign=middle;resizable=0;points=[];" vertex="1" connectable="0" parent="wrcKMghtl0XRS7DJWMNJ-14">
          <mxGeometry x="-0.4" y="-2" relative="1" as="geometry">
            <mxPoint as="offset" />
          </mxGeometry>
        </mxCell>
        <mxCell id="wrcKMghtl0XRS7DJWMNJ-10" value="CONTADOR &amp;lt;= 100" style="strokeWidth=2;html=1;shape=mxgraph.flowchart.decision;whiteSpace=wrap;" vertex="1" parent="1">
          <mxGeometry x="335" y="310" width="150" height="80" as="geometry" />
        </mxCell>
        <mxCell id="wrcKMghtl0XRS7DJWMNJ-12" style="edgeStyle=orthogonalEdgeStyle;rounded=0;orthogonalLoop=1;jettySize=auto;html=1;exitX=0.5;exitY=1;exitDx=0;exitDy=0;entryX=0.5;entryY=0;entryDx=0;entryDy=0;entryPerimeter=0;" edge="1" parent="1" source="wrcKMghtl0XRS7DJWMNJ-7" target="wrcKMghtl0XRS7DJWMNJ-10">
          <mxGeometry relative="1" as="geometry" />
        </mxCell>
        <mxCell id="wrcKMghtl0XRS7DJWMNJ-13" value="RES = NUM * CONTADOR" style="rounded=1;whiteSpace=wrap;html=1;absoluteArcSize=1;arcSize=14;strokeWidth=2;" vertex="1" parent="1">
          <mxGeometry x="330" y="440" width="160" height="40" as="geometry" />
        </mxCell>
        <mxCell id="wrcKMghtl0XRS7DJWMNJ-25" style="edgeStyle=orthogonalEdgeStyle;rounded=0;orthogonalLoop=1;jettySize=auto;html=1;exitX=0.5;exitY=1;exitDx=0;exitDy=0;exitPerimeter=0;entryX=0.5;entryY=0;entryDx=0;entryDy=0;" edge="1" parent="1" source="wrcKMghtl0XRS7DJWMNJ-15" target="wrcKMghtl0XRS7DJWMNJ-17">
          <mxGeometry relative="1" as="geometry" />
        </mxCell>
        <mxCell id="wrcKMghtl0XRS7DJWMNJ-15" value="RES" style="strokeWidth=2;html=1;shape=mxgraph.flowchart.display;whiteSpace=wrap;" vertex="1" parent="1">
          <mxGeometry x="360" y="525" width="100" height="60" as="geometry" />
        </mxCell>
        <mxCell id="wrcKMghtl0XRS7DJWMNJ-16" style="edgeStyle=orthogonalEdgeStyle;rounded=0;orthogonalLoop=1;jettySize=auto;html=1;exitX=0.5;exitY=1;exitDx=0;exitDy=0;entryX=0.5;entryY=0;entryDx=0;entryDy=0;entryPerimeter=0;" edge="1" parent="1" source="wrcKMghtl0XRS7DJWMNJ-13" target="wrcKMghtl0XRS7DJWMNJ-15">
          <mxGeometry relative="1" as="geometry" />
        </mxCell>
        <mxCell id="wrcKMghtl0XRS7DJWMNJ-17" value="ADD 1 TO CONTADOR" style="rounded=1;whiteSpace=wrap;html=1;absoluteArcSize=1;arcSize=14;strokeWidth=2;" vertex="1" parent="1">
          <mxGeometry x="325" y="620" width="160" height="40" as="geometry" />
        </mxCell>
        <mxCell id="wrcKMghtl0XRS7DJWMNJ-20" style="edgeStyle=orthogonalEdgeStyle;rounded=0;orthogonalLoop=1;jettySize=auto;html=1;exitX=0;exitY=0.5;exitDx=0;exitDy=0;entryX=0;entryY=0.5;entryDx=0;entryDy=0;entryPerimeter=0;" edge="1" parent="1" source="wrcKMghtl0XRS7DJWMNJ-17" target="wrcKMghtl0XRS7DJWMNJ-10">
          <mxGeometry relative="1" as="geometry">
            <Array as="points">
              <mxPoint x="200" y="640" />
              <mxPoint x="200" y="350" />
            </Array>
          </mxGeometry>
        </mxCell>
        <mxCell id="wrcKMghtl0XRS7DJWMNJ-22" style="edgeStyle=orthogonalEdgeStyle;rounded=0;orthogonalLoop=1;jettySize=auto;html=1;exitX=1;exitY=0.5;exitDx=0;exitDy=0;entryX=1;entryY=0.5;entryDx=0;entryDy=0;entryPerimeter=0;exitPerimeter=0;" edge="1" parent="1" source="wrcKMghtl0XRS7DJWMNJ-2" target="wrcKMghtl0XRS7DJWMNJ-10">
          <mxGeometry relative="1" as="geometry">
            <Array as="points">
              <mxPoint x="600" y="720" />
              <mxPoint x="600" y="350" />
            </Array>
          </mxGeometry>
        </mxCell>
        <mxCell id="wrcKMghtl0XRS7DJWMNJ-27" value="FALSE" style="edgeLabel;html=1;align=center;verticalAlign=middle;resizable=0;points=[];" vertex="1" connectable="0" parent="wrcKMghtl0XRS7DJWMNJ-22">
          <mxGeometry x="0.7905" relative="1" as="geometry">
            <mxPoint as="offset" />
          </mxGeometry>
        </mxCell>
        <mxCell id="wrcKMghtl0XRS7DJWMNJ-26" style="edgeStyle=orthogonalEdgeStyle;rounded=0;orthogonalLoop=1;jettySize=auto;html=1;exitX=0.5;exitY=1;exitDx=0;exitDy=0;entryX=0.5;entryY=0;entryDx=0;entryDy=0;entryPerimeter=0;" edge="1" parent="1" source="wrcKMghtl0XRS7DJWMNJ-17" target="wrcKMghtl0XRS7DJWMNJ-2">
          <mxGeometry relative="1" as="geometry" />
        </mxCell>
      </root>
    </mxGraphModel>
  </diagram>
  <diagram id="_F8P2H_32Tp78fhCkQZ7" name="100 - 1">
    <mxGraphModel dx="1818" dy="979" grid="1" gridSize="10" guides="1" tooltips="1" connect="1" arrows="1" fold="1" page="1" pageScale="1" pageWidth="827" pageHeight="1169" math="0" shadow="0">
      <root>
        <mxCell id="0" />
        <mxCell id="1" parent="0" />
        <mxCell id="6iE-Bgd7_qPlsERYQozj-1" style="edgeStyle=orthogonalEdgeStyle;rounded=0;orthogonalLoop=1;jettySize=auto;html=1;exitX=0.5;exitY=1;exitDx=0;exitDy=0;exitPerimeter=0;entryX=0.5;entryY=0;entryDx=0;entryDy=0;" edge="1" parent="1" source="6iE-Bgd7_qPlsERYQozj-2" target="6iE-Bgd7_qPlsERYQozj-5">
          <mxGeometry relative="1" as="geometry" />
        </mxCell>
        <mxCell id="6iE-Bgd7_qPlsERYQozj-2" value="INICIO" style="strokeWidth=2;html=1;shape=mxgraph.flowchart.start_1;whiteSpace=wrap;" vertex="1" parent="1">
          <mxGeometry x="360" y="50" width="100" height="60" as="geometry" />
        </mxCell>
        <mxCell id="6iE-Bgd7_qPlsERYQozj-3" value="FIM" style="strokeWidth=2;html=1;shape=mxgraph.flowchart.start_1;whiteSpace=wrap;" vertex="1" parent="1">
          <mxGeometry x="355" y="690" width="100" height="60" as="geometry" />
        </mxCell>
        <mxCell id="6iE-Bgd7_qPlsERYQozj-4" style="edgeStyle=orthogonalEdgeStyle;rounded=0;orthogonalLoop=1;jettySize=auto;html=1;exitX=0.5;exitY=1;exitDx=0;exitDy=0;entryX=0.5;entryY=0;entryDx=0;entryDy=0;" edge="1" parent="1" source="6iE-Bgd7_qPlsERYQozj-5" target="6iE-Bgd7_qPlsERYQozj-6">
          <mxGeometry relative="1" as="geometry" />
        </mxCell>
        <mxCell id="6iE-Bgd7_qPlsERYQozj-5" value="NUM" style="shape=parallelogram;html=1;strokeWidth=2;perimeter=parallelogramPerimeter;whiteSpace=wrap;rounded=1;arcSize=12;size=0.23;" vertex="1" parent="1">
          <mxGeometry x="360" y="150" width="100" height="60" as="geometry" />
        </mxCell>
        <mxCell id="6iE-Bgd7_qPlsERYQozj-6" value="CONTADOR = 100" style="rounded=1;whiteSpace=wrap;html=1;absoluteArcSize=1;arcSize=14;strokeWidth=2;" vertex="1" parent="1">
          <mxGeometry x="350" y="240" width="120" height="40" as="geometry" />
        </mxCell>
        <mxCell id="6iE-Bgd7_qPlsERYQozj-7" style="edgeStyle=orthogonalEdgeStyle;rounded=0;orthogonalLoop=1;jettySize=auto;html=1;exitX=0.5;exitY=1;exitDx=0;exitDy=0;exitPerimeter=0;entryX=0.5;entryY=0;entryDx=0;entryDy=0;" edge="1" parent="1" source="6iE-Bgd7_qPlsERYQozj-9" target="6iE-Bgd7_qPlsERYQozj-11">
          <mxGeometry relative="1" as="geometry" />
        </mxCell>
        <mxCell id="6iE-Bgd7_qPlsERYQozj-8" value="TRUE" style="edgeLabel;html=1;align=center;verticalAlign=middle;resizable=0;points=[];" vertex="1" connectable="0" parent="6iE-Bgd7_qPlsERYQozj-7">
          <mxGeometry x="-0.4" y="-2" relative="1" as="geometry">
            <mxPoint as="offset" />
          </mxGeometry>
        </mxCell>
        <mxCell id="6iE-Bgd7_qPlsERYQozj-9" value="CONTADOR &amp;lt;= 1" style="strokeWidth=2;html=1;shape=mxgraph.flowchart.decision;whiteSpace=wrap;" vertex="1" parent="1">
          <mxGeometry x="335" y="310" width="150" height="80" as="geometry" />
        </mxCell>
        <mxCell id="6iE-Bgd7_qPlsERYQozj-10" style="edgeStyle=orthogonalEdgeStyle;rounded=0;orthogonalLoop=1;jettySize=auto;html=1;exitX=0.5;exitY=1;exitDx=0;exitDy=0;entryX=0.5;entryY=0;entryDx=0;entryDy=0;entryPerimeter=0;" edge="1" parent="1" source="6iE-Bgd7_qPlsERYQozj-6" target="6iE-Bgd7_qPlsERYQozj-9">
          <mxGeometry relative="1" as="geometry" />
        </mxCell>
        <mxCell id="6iE-Bgd7_qPlsERYQozj-11" value="RES = NUM * CONTADOR" style="rounded=1;whiteSpace=wrap;html=1;absoluteArcSize=1;arcSize=14;strokeWidth=2;" vertex="1" parent="1">
          <mxGeometry x="330" y="440" width="160" height="40" as="geometry" />
        </mxCell>
        <mxCell id="6iE-Bgd7_qPlsERYQozj-12" style="edgeStyle=orthogonalEdgeStyle;rounded=0;orthogonalLoop=1;jettySize=auto;html=1;exitX=0.5;exitY=1;exitDx=0;exitDy=0;exitPerimeter=0;entryX=0.5;entryY=0;entryDx=0;entryDy=0;" edge="1" parent="1" source="6iE-Bgd7_qPlsERYQozj-13" target="6iE-Bgd7_qPlsERYQozj-15">
          <mxGeometry relative="1" as="geometry" />
        </mxCell>
        <mxCell id="6iE-Bgd7_qPlsERYQozj-13" value="RES" style="strokeWidth=2;html=1;shape=mxgraph.flowchart.display;whiteSpace=wrap;" vertex="1" parent="1">
          <mxGeometry x="360" y="525" width="100" height="60" as="geometry" />
        </mxCell>
        <mxCell id="6iE-Bgd7_qPlsERYQozj-14" style="edgeStyle=orthogonalEdgeStyle;rounded=0;orthogonalLoop=1;jettySize=auto;html=1;exitX=0.5;exitY=1;exitDx=0;exitDy=0;entryX=0.5;entryY=0;entryDx=0;entryDy=0;entryPerimeter=0;" edge="1" parent="1" source="6iE-Bgd7_qPlsERYQozj-11" target="6iE-Bgd7_qPlsERYQozj-13">
          <mxGeometry relative="1" as="geometry" />
        </mxCell>
        <mxCell id="6iE-Bgd7_qPlsERYQozj-15" value="SUBTRAIR 1 TO CONTADOR" style="rounded=1;whiteSpace=wrap;html=1;absoluteArcSize=1;arcSize=14;strokeWidth=2;" vertex="1" parent="1">
          <mxGeometry x="325" y="620" width="175" height="40" as="geometry" />
        </mxCell>
        <mxCell id="6iE-Bgd7_qPlsERYQozj-16" style="edgeStyle=orthogonalEdgeStyle;rounded=0;orthogonalLoop=1;jettySize=auto;html=1;exitX=0;exitY=0.5;exitDx=0;exitDy=0;entryX=0;entryY=0.5;entryDx=0;entryDy=0;entryPerimeter=0;" edge="1" parent="1" source="6iE-Bgd7_qPlsERYQozj-15" target="6iE-Bgd7_qPlsERYQozj-9">
          <mxGeometry relative="1" as="geometry">
            <Array as="points">
              <mxPoint x="200" y="640" />
              <mxPoint x="200" y="350" />
            </Array>
          </mxGeometry>
        </mxCell>
        <mxCell id="6iE-Bgd7_qPlsERYQozj-17" style="edgeStyle=orthogonalEdgeStyle;rounded=0;orthogonalLoop=1;jettySize=auto;html=1;exitX=1;exitY=0.5;exitDx=0;exitDy=0;entryX=1;entryY=0.5;entryDx=0;entryDy=0;entryPerimeter=0;exitPerimeter=0;" edge="1" parent="1" source="6iE-Bgd7_qPlsERYQozj-3" target="6iE-Bgd7_qPlsERYQozj-9">
          <mxGeometry relative="1" as="geometry">
            <Array as="points">
              <mxPoint x="600" y="720" />
              <mxPoint x="600" y="350" />
            </Array>
          </mxGeometry>
        </mxCell>
        <mxCell id="6iE-Bgd7_qPlsERYQozj-18" value="FALSE" style="edgeLabel;html=1;align=center;verticalAlign=middle;resizable=0;points=[];" vertex="1" connectable="0" parent="6iE-Bgd7_qPlsERYQozj-17">
          <mxGeometry x="0.7905" relative="1" as="geometry">
            <mxPoint as="offset" />
          </mxGeometry>
        </mxCell>
        <mxCell id="6iE-Bgd7_qPlsERYQozj-19" style="edgeStyle=orthogonalEdgeStyle;rounded=0;orthogonalLoop=1;jettySize=auto;html=1;exitX=0.5;exitY=1;exitDx=0;exitDy=0;entryX=0.5;entryY=0;entryDx=0;entryDy=0;entryPerimeter=0;" edge="1" parent="1" source="6iE-Bgd7_qPlsERYQozj-15" target="6iE-Bgd7_qPlsERYQozj-3">
          <mxGeometry relative="1" as="geometry" />
        </mxCell>
      </root>
    </mxGraphModel>
  </diagram>
  <diagram id="LokK__AF3HL1SqAhU8Q2" name="SALTO 2">
    <mxGraphModel dx="1818" dy="979" grid="1" gridSize="10" guides="1" tooltips="1" connect="1" arrows="1" fold="1" page="1" pageScale="1" pageWidth="827" pageHeight="1169" math="0" shadow="0">
      <root>
        <mxCell id="0" />
        <mxCell id="1" parent="0" />
        <mxCell id="W6P2XszeShZ3wL4mHMst-1" style="edgeStyle=orthogonalEdgeStyle;rounded=0;orthogonalLoop=1;jettySize=auto;html=1;exitX=0.5;exitY=1;exitDx=0;exitDy=0;exitPerimeter=0;entryX=0.5;entryY=0;entryDx=0;entryDy=0;" edge="1" parent="1" source="W6P2XszeShZ3wL4mHMst-2" target="W6P2XszeShZ3wL4mHMst-5">
          <mxGeometry relative="1" as="geometry" />
        </mxCell>
        <mxCell id="W6P2XszeShZ3wL4mHMst-2" value="INICIO" style="strokeWidth=2;html=1;shape=mxgraph.flowchart.start_1;whiteSpace=wrap;" vertex="1" parent="1">
          <mxGeometry x="360" y="50" width="100" height="60" as="geometry" />
        </mxCell>
        <mxCell id="W6P2XszeShZ3wL4mHMst-3" value="FIM" style="strokeWidth=2;html=1;shape=mxgraph.flowchart.start_1;whiteSpace=wrap;" vertex="1" parent="1">
          <mxGeometry x="355" y="690" width="100" height="60" as="geometry" />
        </mxCell>
        <mxCell id="W6P2XszeShZ3wL4mHMst-4" style="edgeStyle=orthogonalEdgeStyle;rounded=0;orthogonalLoop=1;jettySize=auto;html=1;exitX=0.5;exitY=1;exitDx=0;exitDy=0;entryX=0.5;entryY=0;entryDx=0;entryDy=0;" edge="1" parent="1" source="W6P2XszeShZ3wL4mHMst-5" target="W6P2XszeShZ3wL4mHMst-6">
          <mxGeometry relative="1" as="geometry" />
        </mxCell>
        <mxCell id="W6P2XszeShZ3wL4mHMst-5" value="NUM" style="shape=parallelogram;html=1;strokeWidth=2;perimeter=parallelogramPerimeter;whiteSpace=wrap;rounded=1;arcSize=12;size=0.23;" vertex="1" parent="1">
          <mxGeometry x="360" y="150" width="100" height="60" as="geometry" />
        </mxCell>
        <mxCell id="W6P2XszeShZ3wL4mHMst-6" value="CONTADOR = 1" style="rounded=1;whiteSpace=wrap;html=1;absoluteArcSize=1;arcSize=14;strokeWidth=2;" vertex="1" parent="1">
          <mxGeometry x="360" y="240" width="100" height="40" as="geometry" />
        </mxCell>
        <mxCell id="W6P2XszeShZ3wL4mHMst-7" style="edgeStyle=orthogonalEdgeStyle;rounded=0;orthogonalLoop=1;jettySize=auto;html=1;exitX=0.5;exitY=1;exitDx=0;exitDy=0;exitPerimeter=0;entryX=0.5;entryY=0;entryDx=0;entryDy=0;" edge="1" parent="1" source="W6P2XszeShZ3wL4mHMst-9" target="W6P2XszeShZ3wL4mHMst-11">
          <mxGeometry relative="1" as="geometry" />
        </mxCell>
        <mxCell id="W6P2XszeShZ3wL4mHMst-8" value="TRUE" style="edgeLabel;html=1;align=center;verticalAlign=middle;resizable=0;points=[];" vertex="1" connectable="0" parent="W6P2XszeShZ3wL4mHMst-7">
          <mxGeometry x="-0.4" y="-2" relative="1" as="geometry">
            <mxPoint as="offset" />
          </mxGeometry>
        </mxCell>
        <mxCell id="W6P2XszeShZ3wL4mHMst-9" value="CONTADOR &amp;lt;= 100" style="strokeWidth=2;html=1;shape=mxgraph.flowchart.decision;whiteSpace=wrap;" vertex="1" parent="1">
          <mxGeometry x="335" y="310" width="150" height="80" as="geometry" />
        </mxCell>
        <mxCell id="W6P2XszeShZ3wL4mHMst-10" style="edgeStyle=orthogonalEdgeStyle;rounded=0;orthogonalLoop=1;jettySize=auto;html=1;exitX=0.5;exitY=1;exitDx=0;exitDy=0;entryX=0.5;entryY=0;entryDx=0;entryDy=0;entryPerimeter=0;" edge="1" parent="1" source="W6P2XszeShZ3wL4mHMst-6" target="W6P2XszeShZ3wL4mHMst-9">
          <mxGeometry relative="1" as="geometry" />
        </mxCell>
        <mxCell id="W6P2XszeShZ3wL4mHMst-11" value="RES = NUM * CONTADOR" style="rounded=1;whiteSpace=wrap;html=1;absoluteArcSize=1;arcSize=14;strokeWidth=2;" vertex="1" parent="1">
          <mxGeometry x="330" y="440" width="160" height="40" as="geometry" />
        </mxCell>
        <mxCell id="W6P2XszeShZ3wL4mHMst-12" style="edgeStyle=orthogonalEdgeStyle;rounded=0;orthogonalLoop=1;jettySize=auto;html=1;exitX=0.5;exitY=1;exitDx=0;exitDy=0;exitPerimeter=0;entryX=0.5;entryY=0;entryDx=0;entryDy=0;" edge="1" parent="1" source="W6P2XszeShZ3wL4mHMst-13" target="W6P2XszeShZ3wL4mHMst-15">
          <mxGeometry relative="1" as="geometry" />
        </mxCell>
        <mxCell id="W6P2XszeShZ3wL4mHMst-13" value="RES" style="strokeWidth=2;html=1;shape=mxgraph.flowchart.display;whiteSpace=wrap;" vertex="1" parent="1">
          <mxGeometry x="360" y="525" width="100" height="60" as="geometry" />
        </mxCell>
        <mxCell id="W6P2XszeShZ3wL4mHMst-14" style="edgeStyle=orthogonalEdgeStyle;rounded=0;orthogonalLoop=1;jettySize=auto;html=1;exitX=0.5;exitY=1;exitDx=0;exitDy=0;entryX=0.5;entryY=0;entryDx=0;entryDy=0;entryPerimeter=0;" edge="1" parent="1" source="W6P2XszeShZ3wL4mHMst-11" target="W6P2XszeShZ3wL4mHMst-13">
          <mxGeometry relative="1" as="geometry" />
        </mxCell>
        <mxCell id="W6P2XszeShZ3wL4mHMst-15" value="ADD 2 TO CONTADOR" style="rounded=1;whiteSpace=wrap;html=1;absoluteArcSize=1;arcSize=14;strokeWidth=2;" vertex="1" parent="1">
          <mxGeometry x="325" y="620" width="160" height="40" as="geometry" />
        </mxCell>
        <mxCell id="W6P2XszeShZ3wL4mHMst-16" style="edgeStyle=orthogonalEdgeStyle;rounded=0;orthogonalLoop=1;jettySize=auto;html=1;exitX=0;exitY=0.5;exitDx=0;exitDy=0;entryX=0;entryY=0.5;entryDx=0;entryDy=0;entryPerimeter=0;" edge="1" parent="1" source="W6P2XszeShZ3wL4mHMst-15" target="W6P2XszeShZ3wL4mHMst-9">
          <mxGeometry relative="1" as="geometry">
            <Array as="points">
              <mxPoint x="200" y="640" />
              <mxPoint x="200" y="350" />
            </Array>
          </mxGeometry>
        </mxCell>
        <mxCell id="W6P2XszeShZ3wL4mHMst-17" style="edgeStyle=orthogonalEdgeStyle;rounded=0;orthogonalLoop=1;jettySize=auto;html=1;exitX=1;exitY=0.5;exitDx=0;exitDy=0;entryX=1;entryY=0.5;entryDx=0;entryDy=0;entryPerimeter=0;exitPerimeter=0;" edge="1" parent="1" source="W6P2XszeShZ3wL4mHMst-3" target="W6P2XszeShZ3wL4mHMst-9">
          <mxGeometry relative="1" as="geometry">
            <Array as="points">
              <mxPoint x="600" y="720" />
              <mxPoint x="600" y="350" />
            </Array>
          </mxGeometry>
        </mxCell>
        <mxCell id="W6P2XszeShZ3wL4mHMst-18" value="FALSE" style="edgeLabel;html=1;align=center;verticalAlign=middle;resizable=0;points=[];" vertex="1" connectable="0" parent="W6P2XszeShZ3wL4mHMst-17">
          <mxGeometry x="0.7905" relative="1" as="geometry">
            <mxPoint as="offset" />
          </mxGeometry>
        </mxCell>
        <mxCell id="W6P2XszeShZ3wL4mHMst-19" style="edgeStyle=orthogonalEdgeStyle;rounded=0;orthogonalLoop=1;jettySize=auto;html=1;exitX=0.5;exitY=1;exitDx=0;exitDy=0;entryX=0.5;entryY=0;entryDx=0;entryDy=0;entryPerimeter=0;" edge="1" parent="1" source="W6P2XszeShZ3wL4mHMst-15" target="W6P2XszeShZ3wL4mHMst-3">
          <mxGeometry relative="1" as="geometry" />
        </mxCell>
      </root>
    </mxGraphModel>
  </diagram>
</mxfile>
